<mxfile host="app.diagrams.net" modified="2023-08-18T12:20:38.524Z" agent="Mozilla/5.0 (Windows NT 10.0; Win64; x64) AppleWebKit/537.36 (KHTML, like Gecko) Chrome/112.0.0.0 Safari/537.36" etag="U2cVOfHKjJAxUeOrgrCy" version="21.6.8" type="github">
  <diagram id="0d7cefc2-ccd6-e077-73ed-a8e48b0cddf6" name="Page-1">
    <mxGraphModel dx="1122" dy="678" grid="1" gridSize="10" guides="1" tooltips="1" connect="1" arrows="1" fold="1" page="1" pageScale="1" pageWidth="1169" pageHeight="827" background="none" math="0" shadow="0">
      <root>
        <mxCell id="0" />
        <mxCell id="1" parent="0" />
        <mxCell id="tzOohohRSPYYL7pWEnnR-140" value="" style="shape=internalStorage;whiteSpace=wrap;html=1;backgroundOutline=1;dx=150;dy=130;movable=1;resizable=1;rotatable=1;deletable=1;editable=1;locked=0;connectable=1;" vertex="1" parent="1">
          <mxGeometry x="70" y="100" width="1020" height="690" as="geometry" />
        </mxCell>
        <mxCell id="tzOohohRSPYYL7pWEnnR-142" value="OSS对象存储" style="image;aspect=fixed;perimeter=ellipsePerimeter;html=1;align=center;shadow=0;dashed=0;fontColor=#4277BB;labelBackgroundColor=default;fontSize=12;spacingTop=3;image=img/lib/ibm/management/api_management.svg;" vertex="1" parent="1">
          <mxGeometry x="1000" y="130" width="60" height="60" as="geometry" />
        </mxCell>
        <mxCell id="tzOohohRSPYYL7pWEnnR-143" value="文档资料" style="image;aspect=fixed;perimeter=ellipsePerimeter;html=1;align=center;shadow=0;dashed=0;fontColor=#4277BB;labelBackgroundColor=default;fontSize=12;spacingTop=3;image=img/lib/ibm/miscellaneous/text_to_speech.svg;" vertex="1" parent="1">
          <mxGeometry x="110" y="260" width="60" height="60" as="geometry" />
        </mxCell>
      </root>
    </mxGraphModel>
  </diagram>
</mxfile>
